// converted at http://typeface.neocracy.org
vector_battle = {"glyphs":{"0":{"ha":814,"x_min":69,"x_max":744,"o":"m 610 810 l 204 810 l 204 944 l 610 944 l 610 810 m 610 0 l 204 0 l 204 135 l 610 135 l 610 0 m 474 404 l 339 404 l 339 540 l 474 540 l 474 404 m 204 135 l 69 135 l 69 810 l 204 810 l 204 404 l 339 404 l 339 269 l 204 269 l 204 135 m 744 135 l 610 135 l 610 540 l 474 540 l 474 675 l 610 675 l 610 810 l 744 810 l 744 135 z "},"1":{"ha":543,"x_min":69,"x_max":474,"o":"m 474 0 l 69 0 l 69 135 l 204 135 l 204 810 l 69 810 l 69 944 l 339 944 l 339 135 l 474 135 l 474 0 z "},"2":{"ha":814,"x_min":69,"x_max":744,"o":"m 610 810 l 204 810 l 204 944 l 610 944 l 610 810 m 744 675 l 610 675 l 610 810 l 744 810 l 744 675 m 610 540 l 474 540 l 474 675 l 610 675 l 610 540 m 474 404 l 339 404 l 339 540 l 474 540 l 474 404 m 339 269 l 204 269 l 204 404 l 339 404 l 339 269 m 204 675 l 69 675 l 69 810 l 204 810 l 204 675 m 744 0 l 69 0 l 69 269 l 204 269 l 204 135 l 744 135 l 744 0 z "},"3":{"ha":814,"x_min":69,"x_max":744,"o":"m 610 810 l 204 810 l 204 944 l 610 944 l 610 810 m 610 0 l 204 0 l 204 135 l 610 135 l 610 0 m 610 404 l 204 404 l 204 540 l 610 540 l 610 404 m 744 540 l 610 540 l 610 810 l 744 810 l 744 540 m 204 675 l 69 675 l 69 810 l 204 810 l 204 675 m 744 135 l 610 135 l 610 404 l 744 404 l 744 135 m 204 135 l 69 135 l 69 269 l 204 269 l 204 135 z "},"4":{"ha":814,"x_min":69,"x_max":744,"o":"m 744 0 l 339 0 l 339 135 l 474 135 l 474 269 l 69 269 l 69 540 l 204 540 l 204 404 l 474 404 l 474 675 l 339 675 l 339 810 l 474 810 l 474 944 l 610 944 l 610 404 l 744 404 l 744 269 l 610 269 l 610 135 l 744 135 l 744 0 m 339 540 l 204 540 l 204 675 l 339 675 l 339 540 z "},"5":{"ha":814,"x_min":69,"x_max":744,"o":"m 610 0 l 204 0 l 204 135 l 610 135 l 610 0 m 610 404 l 204 404 l 204 540 l 610 540 l 610 404 m 744 135 l 610 135 l 610 404 l 744 404 l 744 135 m 204 540 l 69 540 l 69 944 l 744 944 l 744 810 l 204 810 l 204 540 m 204 135 l 69 135 l 69 269 l 204 269 l 204 135 z "},"6":{"ha":814,"x_min":69,"x_max":744,"o":"m 610 0 l 204 0 l 204 135 l 610 135 l 610 0 m 610 404 l 204 404 l 204 540 l 610 540 l 610 404 m 204 540 l 69 540 l 69 675 l 204 675 l 204 540 m 339 675 l 204 675 l 204 810 l 339 810 l 339 675 m 610 810 l 339 810 l 339 944 l 610 944 l 610 810 m 744 135 l 610 135 l 610 404 l 744 404 l 744 135 m 204 135 l 69 135 l 69 404 l 204 404 l 204 135 z "},"7":{"ha":814,"x_min":69,"x_max":744,"o":"m 339 0 l 204 0 l 204 404 l 339 404 l 339 0 m 744 675 l 610 675 l 610 810 l 204 810 l 204 675 l 69 675 l 69 944 l 744 944 l 744 675 m 610 540 l 474 540 l 474 675 l 610 675 l 610 540 m 474 404 l 339 404 l 339 540 l 474 540 l 474 404 z "},"8":{"ha":814,"x_min":69,"x_max":744,"o":"m 610 810 l 204 810 l 204 944 l 610 944 l 610 810 m 610 0 l 204 0 l 204 135 l 610 135 l 610 0 m 610 404 l 204 404 l 204 540 l 610 540 l 610 404 m 204 135 l 69 135 l 69 404 l 204 404 l 204 135 m 744 540 l 610 540 l 610 810 l 744 810 l 744 540 m 204 540 l 69 540 l 69 810 l 204 810 l 204 540 m 744 135 l 610 135 l 610 404 l 744 404 l 744 135 z "},"9":{"ha":814,"x_min":69,"x_max":744,"o":"m 610 810 l 204 810 l 204 944 l 610 944 l 610 810 m 610 135 l 474 135 l 474 269 l 610 269 l 610 135 m 474 0 l 204 0 l 204 135 l 474 135 l 474 0 m 204 540 l 69 540 l 69 810 l 204 810 l 204 540 m 744 269 l 610 269 l 610 404 l 204 404 l 204 540 l 610 540 l 610 810 l 744 810 l 744 269 z "}," ":{"ha":417,"x_min":0,"x_max":0,"o":""}," ":{"ha":417,"x_min":0,"x_max":0,"o":""},"!":{"ha":274,"x_min":69,"x_max":204,"o":"m 204 0 l 69 0 l 69 135 l 204 135 l 204 0 m 204 269 l 69 269 l 69 944 l 204 944 l 204 269 z "},"\"":{"ha":476,"x_min":69,"x_max":407,"o":"m 204 743 l 138 743 l 138 810 l 69 810 l 69 944 l 204 944 l 204 743 m 138 675 l 69 675 l 69 743 l 138 743 l 138 675 m 407 743 l 339 743 l 339 810 l 272 810 l 272 944 l 407 944 l 407 743 m 339 675 l 272 675 l 272 743 l 339 743 l 339 675 z "},"#":{"ha":814,"x_min":69,"x_max":744,"o":"m 610 135 l 474 135 l 474 269 l 339 269 l 339 135 l 204 135 l 204 269 l 69 269 l 69 406 l 204 406 l 204 540 l 69 540 l 69 675 l 204 675 l 204 810 l 339 810 l 339 675 l 474 675 l 474 810 l 610 810 l 610 675 l 744 675 l 744 540 l 610 540 l 610 406 l 744 406 l 744 269 l 610 269 l 610 135 m 474 406 l 474 540 l 339 540 l 339 406 l 474 406 z "},"$":{"ha":814,"x_min":69,"x_max":744,"o":"m 204 675 l 204 540 l 69 540 l 69 675 l 204 675 m 474 0 l 339 0 l 339 135 l 69 135 l 69 269 l 610 269 l 610 135 l 474 135 l 474 0 m 744 269 l 610 269 l 610 406 l 744 406 l 744 269 m 204 540 l 610 540 l 610 406 l 204 406 l 204 540 m 204 675 l 204 810 l 339 810 l 339 944 l 474 944 l 474 810 l 744 810 l 744 675 l 204 675 z "},"%":{"ha":881,"x_min":69,"x_max":811,"o":"m 272 607 l 138 607 l 138 642 l 103 642 l 103 675 l 69 675 l 69 878 l 103 878 l 103 911 l 138 911 l 138 944 l 272 944 l 272 911 l 306 911 l 306 878 l 339 878 l 339 675 l 306 675 l 306 642 l 272 642 l 272 607 m 272 675 l 272 878 l 138 878 l 138 675 l 272 675 m 744 0 l 610 0 l 610 33 l 575 33 l 575 68 l 542 68 l 542 269 l 575 269 l 575 304 l 610 304 l 610 338 l 744 338 l 744 304 l 778 304 l 778 269 l 811 269 l 811 68 l 778 68 l 778 33 l 744 33 l 744 0 m 744 68 l 744 269 l 610 269 l 610 68 l 744 68 m 474 406 l 407 406 l 407 540 l 474 540 l 474 406 m 610 607 l 542 607 l 542 743 l 610 743 l 610 607 m 744 810 l 676 810 l 676 944 l 744 944 l 744 810 m 542 540 l 474 540 l 474 607 l 542 607 l 542 540 m 676 743 l 610 743 l 610 810 l 676 810 l 676 743 m 339 203 l 272 203 l 272 338 l 339 338 l 339 203 m 204 0 l 138 0 l 138 135 l 204 135 l 204 0 m 407 338 l 339 338 l 339 406 l 407 406 l 407 338 m 272 135 l 204 135 l 204 203 l 272 203 l 272 135 z "},"&":{"ha":949,"x_min":69,"x_max":879,"o":"m 204 135 l 69 135 l 69 406 l 204 406 l 204 135 m 204 540 l 69 540 l 69 810 l 204 810 l 204 540 m 610 810 l 204 810 l 204 944 l 610 944 l 610 810 m 744 675 l 610 675 l 610 810 l 744 810 l 744 675 m 879 0 l 744 0 l 744 135 l 879 135 l 879 0 m 610 0 l 204 0 l 204 135 l 610 135 l 610 0 m 744 135 l 610 135 l 610 406 l 204 406 l 204 540 l 879 540 l 879 406 l 744 406 l 744 135 z "},"'":{"ha":274,"x_min":69,"x_max":204,"o":"m 204 743 l 138 743 l 138 810 l 69 810 l 69 944 l 204 944 l 204 743 m 138 675 l 69 675 l 69 743 l 138 743 l 138 675 z "},"(":{"ha":408,"x_min":69,"x_max":339,"o":"m 339 944 l 204 944 l 204 1079 l 339 1079 l 339 944 m 339 -135 l 204 -135 l 204 0 l 339 0 l 339 -135 m 204 0 l 69 0 l 69 944 l 204 944 l 204 0 z "},")":{"ha":408,"x_min":69,"x_max":339,"o":"m 204 -135 l 69 -135 l 69 0 l 204 0 l 204 -135 m 204 944 l 69 944 l 69 1079 l 204 1079 l 204 944 m 339 0 l 204 0 l 204 944 l 339 944 l 339 0 z "},"*":{"ha":543,"x_min":69,"x_max":474,"o":"m 339 675 l 204 675 l 204 810 l 339 810 l 339 675 m 204 810 l 69 810 l 69 944 l 204 944 l 204 810 m 474 810 l 339 810 l 339 944 l 474 944 l 474 810 m 204 540 l 69 540 l 69 675 l 204 675 l 204 540 m 474 540 l 339 540 l 339 675 l 474 675 l 474 540 z "},"+":{"ha":814,"x_min":69,"x_max":744,"o":"m 474 135 l 339 135 l 339 406 l 69 406 l 69 540 l 339 540 l 339 810 l 474 810 l 474 540 l 744 540 l 744 406 l 474 406 l 474 135 z "},",":{"ha":274,"x_min":69,"x_max":204,"o":"m 204 -67 l 138 -67 l 138 0 l 69 0 l 69 135 l 204 135 l 204 -67 m 138 -135 l 69 -135 l 69 -67 l 138 -67 l 138 -135 z "},"-":{"ha":679,"x_min":69,"x_max":610,"o":"m 610 406 l 69 406 l 69 540 l 610 540 l 610 406 z "},"­":{"ha":679,"x_min":69,"x_max":610,"o":"m 610 406 l 69 406 l 69 540 l 610 540 l 610 406 z "},".":{"ha":274,"x_min":69,"x_max":204,"o":"m 204 0 l 69 0 l 69 135 l 204 135 l 204 0 z "},"/":{"ha":746,"x_min":69,"x_max":676,"o":"m 407 406 l 339 406 l 339 540 l 407 540 l 407 406 m 542 607 l 474 607 l 474 743 l 542 743 l 542 607 m 676 810 l 610 810 l 610 944 l 676 944 l 676 810 m 474 540 l 407 540 l 407 607 l 474 607 l 474 540 m 610 743 l 542 743 l 542 810 l 610 810 l 610 743 m 272 203 l 204 203 l 204 338 l 272 338 l 272 203 m 138 0 l 69 0 l 69 135 l 138 135 l 138 0 m 339 338 l 272 338 l 272 406 l 339 406 l 339 338 m 204 135 l 138 135 l 138 203 l 204 203 l 204 135 z "},":":{"ha":274,"x_min":69,"x_max":204,"o":"m 204 0 l 69 0 l 69 135 l 204 135 l 204 0 m 204 271 l 69 271 l 69 406 l 204 406 l 204 271 z "},";":{"ha":274,"x_min":69,"x_max":204,"o":"m 204 -67 l 138 -67 l 138 0 l 69 0 l 69 135 l 204 135 l 204 -67 m 204 271 l 69 271 l 69 406 l 204 406 l 204 271 m 138 -135 l 69 -135 l 69 -67 l 138 -67 l 138 -135 z "},"<":{"ha":543,"x_min":69,"x_max":474,"o":"m 339 540 l 204 540 l 204 675 l 339 675 l 339 540 m 204 406 l 69 406 l 69 540 l 204 540 l 204 406 m 339 269 l 204 269 l 204 406 l 339 406 l 339 269 m 474 135 l 339 135 l 339 269 l 474 269 l 474 135 m 474 675 l 339 675 l 339 810 l 474 810 l 474 675 z "},"=":{"ha":679,"x_min":69,"x_max":610,"o":"m 610 540 l 69 540 l 69 675 l 610 675 l 610 540 m 610 269 l 69 269 l 69 406 l 610 406 l 610 269 z "},">":{"ha":543,"x_min":69,"x_max":474,"o":"m 339 269 l 204 269 l 204 406 l 339 406 l 339 269 m 204 135 l 69 135 l 69 269 l 204 269 l 204 135 m 474 406 l 339 406 l 339 540 l 474 540 l 474 406 m 339 540 l 204 540 l 204 675 l 339 675 l 339 540 m 204 675 l 69 675 l 69 810 l 204 810 l 204 675 z "},"?":{"ha":814,"x_min":69,"x_max":744,"o":"m 610 810 l 204 810 l 204 944 l 610 944 l 610 810 m 339 0 l 204 0 l 204 135 l 339 135 l 339 0 m 744 675 l 610 675 l 610 810 l 744 810 l 744 675 m 610 540 l 474 540 l 474 675 l 610 675 l 610 540 m 474 406 l 339 406 l 339 540 l 474 540 l 474 406 m 339 269 l 204 269 l 204 406 l 339 406 l 339 269 m 204 675 l 69 675 l 69 810 l 204 810 l 204 675 z "},"@":{"ha":1083,"x_min":69,"x_max":1014,"o":"m 879 810 l 204 810 l 204 944 l 879 944 l 879 810 m 879 0 l 204 0 l 204 135 l 879 135 l 879 0 m 204 135 l 69 135 l 69 810 l 204 810 l 204 135 m 879 269 l 474 269 l 474 406 l 610 406 l 610 540 l 474 540 l 474 675 l 744 675 l 744 406 l 879 406 l 879 269 m 1014 406 l 879 406 l 879 810 l 1014 810 l 1014 406 m 474 406 l 339 406 l 339 540 l 474 540 l 474 406 z "},"A":{"ha":814,"x_min":69,"x_max":744,"o":"m 610 810 l 204 810 l 204 944 l 610 944 l 610 810 m 744 0 l 610 0 l 610 404 l 204 404 l 204 0 l 69 0 l 69 810 l 204 810 l 204 540 l 610 540 l 610 810 l 744 810 l 744 0 z "},"B":{"ha":814,"x_min":69,"x_max":744,"o":"m 610 0 l 69 0 l 69 944 l 610 944 l 610 810 l 204 810 l 204 540 l 610 540 l 610 404 l 204 404 l 204 135 l 610 135 l 610 0 m 744 540 l 610 540 l 610 810 l 744 810 l 744 540 m 744 135 l 610 135 l 610 404 l 744 404 l 744 135 z "},"C":{"ha":814,"x_min":69,"x_max":744,"o":"m 610 810 l 204 810 l 204 944 l 610 944 l 610 810 m 610 0 l 204 0 l 204 135 l 610 135 l 610 0 m 744 675 l 610 675 l 610 810 l 744 810 l 744 675 m 204 135 l 69 135 l 69 810 l 204 810 l 204 135 m 744 135 l 610 135 l 610 269 l 744 269 l 744 135 z "},"D":{"ha":814,"x_min":69,"x_max":744,"o":"m 610 0 l 69 0 l 69 944 l 610 944 l 610 810 l 204 810 l 204 135 l 610 135 l 610 0 m 744 135 l 610 135 l 610 810 l 744 810 l 744 135 z "},"E":{"ha":814,"x_min":69,"x_max":744,"o":"m 744 0 l 69 0 l 69 944 l 744 944 l 744 810 l 204 810 l 204 540 l 474 540 l 474 404 l 204 404 l 204 135 l 744 135 l 744 0 z "},"F":{"ha":814,"x_min":69,"x_max":744,"o":"m 204 0 l 69 0 l 69 944 l 744 944 l 744 810 l 204 810 l 204 540 l 474 540 l 474 404 l 204 404 l 204 0 z "},"G":{"ha":814,"x_min":69,"x_max":744,"o":"m 610 810 l 204 810 l 204 944 l 610 944 l 610 810 m 610 0 l 204 0 l 204 135 l 610 135 l 610 0 m 744 675 l 610 675 l 610 810 l 744 810 l 744 675 m 204 135 l 69 135 l 69 810 l 204 810 l 204 135 m 744 135 l 610 135 l 610 404 l 339 404 l 339 540 l 744 540 l 744 135 z "},"H":{"ha":814,"x_min":69,"x_max":744,"o":"m 744 0 l 610 0 l 610 404 l 204 404 l 204 0 l 69 0 l 69 944 l 204 944 l 204 540 l 610 540 l 610 944 l 744 944 l 744 0 z "},"I":{"ha":543,"x_min":69,"x_max":474,"o":"m 474 0 l 69 0 l 69 135 l 204 135 l 204 810 l 69 810 l 69 944 l 474 944 l 474 810 l 339 810 l 339 135 l 474 135 l 474 0 z "},"J":{"ha":814,"x_min":69,"x_max":744,"o":"m 744 135 l 610 135 l 610 810 l 204 810 l 204 944 l 744 944 l 744 135 m 610 0 l 204 0 l 204 135 l 610 135 l 610 0 m 204 135 l 69 135 l 69 269 l 204 269 l 204 135 z "},"K":{"ha":814,"x_min":69,"x_max":744,"o":"m 474 540 l 339 540 l 339 675 l 474 675 l 474 540 m 610 675 l 474 675 l 474 810 l 610 810 l 610 675 m 474 269 l 339 269 l 339 404 l 474 404 l 474 269 m 610 135 l 474 135 l 474 269 l 610 269 l 610 135 m 744 0 l 610 0 l 610 135 l 744 135 l 744 0 m 744 810 l 610 810 l 610 944 l 744 944 l 744 810 m 204 0 l 69 0 l 69 944 l 204 944 l 204 540 l 339 540 l 339 404 l 204 404 l 204 0 z "},"L":{"ha":814,"x_min":69,"x_max":744,"o":"m 744 0 l 69 0 l 69 944 l 204 944 l 204 135 l 744 135 l 744 0 z "},"M":{"ha":1083,"x_min":69,"x_max":1014,"o":"m 610 540 l 474 540 l 474 675 l 610 675 l 610 540 m 474 675 l 339 675 l 339 810 l 474 810 l 474 675 m 204 0 l 69 0 l 69 944 l 339 944 l 339 810 l 204 810 l 204 0 m 744 675 l 610 675 l 610 810 l 744 810 l 744 675 m 1014 0 l 879 0 l 879 810 l 744 810 l 744 944 l 1014 944 l 1014 0 z "},"N":{"ha":814,"x_min":69,"x_max":744,"o":"m 474 675 l 339 675 l 339 810 l 474 810 l 474 675 m 204 0 l 69 0 l 69 944 l 339 944 l 339 810 l 204 810 l 204 0 m 744 0 l 610 0 l 610 540 l 474 540 l 474 675 l 610 675 l 610 944 l 744 944 l 744 0 z "},"O":{"ha":814,"x_min":69,"x_max":744,"o":"m 610 810 l 204 810 l 204 944 l 610 944 l 610 810 m 610 0 l 204 0 l 204 135 l 610 135 l 610 0 m 744 135 l 610 135 l 610 810 l 744 810 l 744 135 m 204 135 l 69 135 l 69 810 l 204 810 l 204 135 z "},"P":{"ha":814,"x_min":69,"x_max":744,"o":"m 204 0 l 69 0 l 69 944 l 610 944 l 610 810 l 204 810 l 204 540 l 610 540 l 610 404 l 204 404 l 204 0 m 744 540 l 610 540 l 610 810 l 744 810 l 744 540 z "},"Q":{"ha":814,"x_min":69,"x_max":744,"o":"m 610 810 l 204 810 l 204 944 l 610 944 l 610 810 m 474 269 l 339 269 l 339 404 l 474 404 l 474 269 m 744 0 l 610 0 l 610 135 l 744 135 l 744 0 m 474 0 l 204 0 l 204 135 l 474 135 l 474 0 m 744 269 l 610 269 l 610 810 l 744 810 l 744 269 m 204 135 l 69 135 l 69 810 l 204 810 l 204 135 m 610 135 l 474 135 l 474 269 l 610 269 l 610 135 z "},"R":{"ha":814,"x_min":69,"x_max":744,"o":"m 610 135 l 474 135 l 474 269 l 610 269 l 610 135 m 744 0 l 610 0 l 610 135 l 744 135 l 744 0 m 204 0 l 69 0 l 69 944 l 610 944 l 610 810 l 204 810 l 204 540 l 610 540 l 610 404 l 474 404 l 474 269 l 339 269 l 339 404 l 204 404 l 204 0 m 744 540 l 610 540 l 610 810 l 744 810 l 744 540 z "},"S":{"ha":814,"x_min":69,"x_max":744,"o":"m 610 810 l 204 810 l 204 944 l 610 944 l 610 810 m 610 0 l 204 0 l 204 135 l 610 135 l 610 0 m 610 404 l 204 404 l 204 540 l 610 540 l 610 404 m 744 675 l 610 675 l 610 810 l 744 810 l 744 675 m 204 540 l 69 540 l 69 810 l 204 810 l 204 540 m 744 135 l 610 135 l 610 404 l 744 404 l 744 135 m 204 135 l 69 135 l 69 269 l 204 269 l 204 135 z "},"T":{"ha":814,"x_min":69,"x_max":744,"o":"m 474 0 l 339 0 l 339 810 l 69 810 l 69 944 l 744 944 l 744 810 l 474 810 l 474 0 z "},"U":{"ha":814,"x_min":69,"x_max":744,"o":"m 610 0 l 204 0 l 204 135 l 610 135 l 610 0 m 744 135 l 610 135 l 610 944 l 744 944 l 744 135 m 204 135 l 69 135 l 69 944 l 204 944 l 204 135 z "},"V":{"ha":814,"x_min":69,"x_max":744,"o":"m 474 0 l 339 0 l 339 135 l 474 135 l 474 0 m 610 135 l 474 135 l 474 269 l 610 269 l 610 135 m 339 135 l 204 135 l 204 269 l 339 269 l 339 135 m 744 269 l 610 269 l 610 944 l 744 944 l 744 269 m 204 269 l 69 269 l 69 944 l 204 944 l 204 269 z "},"W":{"ha":1083,"x_min":69,"x_max":1014,"o":"m 610 269 l 474 269 l 474 404 l 610 404 l 610 269 m 744 135 l 610 135 l 610 269 l 744 269 l 744 135 m 879 0 l 744 0 l 744 135 l 879 135 l 879 0 m 474 135 l 339 135 l 339 269 l 474 269 l 474 135 m 339 0 l 204 0 l 204 135 l 339 135 l 339 0 m 1014 135 l 879 135 l 879 944 l 1014 944 l 1014 135 m 204 135 l 69 135 l 69 944 l 204 944 l 204 135 z "},"X":{"ha":814,"x_min":69,"x_max":744,"o":"m 474 404 l 339 404 l 339 540 l 474 540 l 474 404 m 339 540 l 204 540 l 204 675 l 339 675 l 339 540 m 610 540 l 474 540 l 474 675 l 610 675 l 610 540 m 204 675 l 69 675 l 69 944 l 204 944 l 204 675 m 744 675 l 610 675 l 610 944 l 744 944 l 744 675 m 610 269 l 474 269 l 474 404 l 610 404 l 610 269 m 339 269 l 204 269 l 204 404 l 339 404 l 339 269 m 204 0 l 69 0 l 69 269 l 204 269 l 204 0 m 744 0 l 610 0 l 610 269 l 744 269 l 744 0 z "},"Y":{"ha":814,"x_min":69,"x_max":744,"o":"m 474 0 l 339 0 l 339 404 l 474 404 l 474 0 m 339 404 l 204 404 l 204 540 l 339 540 l 339 404 m 610 404 l 474 404 l 474 540 l 610 540 l 610 404 m 204 540 l 69 540 l 69 944 l 204 944 l 204 540 m 744 540 l 610 540 l 610 944 l 744 944 l 744 540 z "},"Z":{"ha":814,"x_min":69,"x_max":744,"o":"m 474 404 l 339 404 l 339 540 l 474 540 l 474 404 m 610 540 l 474 540 l 474 675 l 610 675 l 610 540 m 744 675 l 610 675 l 610 810 l 69 810 l 69 944 l 744 944 l 744 675 m 339 269 l 204 269 l 204 404 l 339 404 l 339 269 m 744 0 l 69 0 l 69 269 l 204 269 l 204 135 l 744 135 l 744 0 z "},"[":{"ha":408,"x_min":69,"x_max":339,"o":"m 339 -135 l 69 -135 l 69 1079 l 339 1079 l 339 944 l 204 944 l 204 0 l 339 0 l 339 -135 z "},"\\":{"ha":746,"x_min":69,"x_max":676,"o":"m 407 406 l 339 406 l 339 540 l 407 540 l 407 406 m 272 607 l 204 607 l 204 743 l 272 743 l 272 607 m 138 810 l 69 810 l 69 944 l 138 944 l 138 810 m 339 540 l 272 540 l 272 607 l 339 607 l 339 540 m 204 743 l 138 743 l 138 810 l 204 810 l 204 743 m 542 203 l 474 203 l 474 338 l 542 338 l 542 203 m 676 0 l 610 0 l 610 135 l 676 135 l 676 0 m 474 338 l 407 338 l 407 406 l 474 406 l 474 338 m 610 135 l 542 135 l 542 203 l 610 203 l 610 135 z "},"]":{"ha":408,"x_min":69,"x_max":339,"o":"m 339 -135 l 69 -135 l 69 0 l 204 0 l 204 944 l 69 944 l 69 1079 l 339 1079 l 339 -135 z "},"^":{"ha":814,"x_min":69,"x_max":744,"o":"m 474 675 l 474 810 l 610 810 l 610 675 l 474 675 m 339 810 l 339 944 l 474 944 l 474 810 l 339 810 m 204 675 l 204 810 l 339 810 l 339 675 l 204 675 m 69 539 l 69 675 l 204 675 l 204 539 l 69 539 m 610 539 l 610 675 l 744 675 l 744 539 l 610 539 z "},"_":{"ha":814,"x_min":69,"x_max":744,"o":"m 744 0 l 69 0 l 69 135 l 744 135 l 744 0 z "},"`":{"ha":543,"x_min":138,"x_max":339,"o":"m 339 1013 l 272 1013 l 272 1079 l 339 1079 l 339 1013 m 272 1079 l 204 1079 l 204 1147 l 272 1147 l 272 1079 m 204 1147 l 138 1147 l 138 1214 l 204 1214 l 204 1147 z "},"a":{"ha":814,"x_min":69,"x_max":744,"o":"m 204 135 l 69 135 l 69 271 l 204 271 l 204 135 m 610 540 l 69 540 l 69 675 l 610 675 l 610 540 m 744 0 l 204 0 l 204 135 l 610 135 l 610 271 l 204 271 l 204 406 l 610 406 l 610 540 l 744 540 l 744 0 z "},"b":{"ha":814,"x_min":69,"x_max":744,"o":"m 610 0 l 69 0 l 69 944 l 204 944 l 204 675 l 610 675 l 610 540 l 204 540 l 204 135 l 610 135 l 610 0 m 744 135 l 610 135 l 610 540 l 744 540 l 744 135 z "},"c":{"ha":814,"x_min":69,"x_max":744,"o":"m 610 540 l 204 540 l 204 675 l 610 675 l 610 540 m 744 406 l 610 406 l 610 540 l 744 540 l 744 406 m 744 135 l 610 135 l 610 271 l 744 271 l 744 135 m 610 0 l 204 0 l 204 135 l 610 135 l 610 0 m 204 135 l 69 135 l 69 540 l 204 540 l 204 135 z "},"d":{"ha":814,"x_min":69,"x_max":744,"o":"m 204 135 l 69 135 l 69 540 l 204 540 l 204 135 m 744 0 l 204 0 l 204 135 l 610 135 l 610 540 l 204 540 l 204 675 l 610 675 l 610 944 l 744 944 l 744 0 z "},"e":{"ha":814,"x_min":69,"x_max":744,"o":"m 204 135 l 69 135 l 69 540 l 204 540 l 204 406 l 610 406 l 610 540 l 744 540 l 744 271 l 204 271 l 204 135 m 610 540 l 204 540 l 204 675 l 610 675 l 610 540 m 610 0 l 204 0 l 204 135 l 610 135 l 610 0 z "},"f":{"ha":675,"x_min":69,"x_max":744,"o":"m 339 0 l 204 0 l 204 540 l 69 540 l 69 675 l 204 675 l 204 810 l 339 810 l 339 675 l 610 675 l 610 540 l 339 540 l 339 0 m 744 810 l 339 810 l 339 944 l 744 944 l 744 810 z "},"g":{"ha":814,"x_min":69,"x_max":744,"o":"m 610 -269 l 69 -269 l 69 -135 l 610 -135 l 610 -269 m 744 -135 l 610 -135 l 610 0 l 204 0 l 204 135 l 610 135 l 610 540 l 204 540 l 204 675 l 744 675 l 744 -135 m 204 135 l 69 135 l 69 540 l 204 540 l 204 135 z "},"h":{"ha":814,"x_min":69,"x_max":744,"o":"m 204 0 l 69 0 l 69 944 l 204 944 l 204 675 l 610 675 l 610 540 l 204 540 l 204 0 m 744 0 l 610 0 l 610 540 l 744 540 l 744 0 z "},"i":{"ha":274,"x_min":69,"x_max":204,"o":"m 204 0 l 69 0 l 69 675 l 204 675 l 204 0 m 204 810 l 69 810 l 69 944 l 204 944 l 204 810 z "},"j":{"ha":265,"x_min":-208,"x_max":196,"o":"m 196 -135 l 61 -135 l 61 675 l 196 675 l 196 -135 m 61 -269 l -208 -269 l -208 -135 l 61 -135 l 61 -269 m 196 810 l 61 810 l 61 944 l 196 944 l 196 810 z "},"k":{"ha":679,"x_min":69,"x_max":610,"o":"m 474 406 l 339 406 l 339 540 l 474 540 l 474 406 m 610 540 l 474 540 l 474 675 l 610 675 l 610 540 m 474 135 l 339 135 l 339 271 l 474 271 l 474 135 m 610 0 l 474 0 l 474 135 l 610 135 l 610 0 m 204 0 l 69 0 l 69 944 l 204 944 l 204 406 l 339 406 l 339 271 l 204 271 l 204 0 z "},"l":{"ha":274,"x_min":69,"x_max":204,"o":"m 204 0 l 69 0 l 69 944 l 204 944 l 204 0 z "},"m":{"ha":1083,"x_min":69,"x_max":1014,"o":"m 610 0 l 474 0 l 474 540 l 204 540 l 204 0 l 69 0 l 69 675 l 879 675 l 879 540 l 610 540 l 610 0 m 1014 0 l 879 0 l 879 540 l 1014 540 l 1014 0 z "},"n":{"ha":814,"x_min":69,"x_max":744,"o":"m 204 0 l 69 0 l 69 675 l 610 675 l 610 540 l 204 540 l 204 0 m 744 0 l 610 0 l 610 540 l 744 540 l 744 0 z "},"o":{"ha":814,"x_min":69,"x_max":744,"o":"m 610 540 l 204 540 l 204 675 l 610 675 l 610 540 m 744 135 l 610 135 l 610 540 l 744 540 l 744 135 m 610 0 l 204 0 l 204 135 l 610 135 l 610 0 m 204 135 l 69 135 l 69 540 l 204 540 l 204 135 z "},"p":{"ha":814,"x_min":69,"x_max":744,"o":"m 744 135 l 610 135 l 610 540 l 744 540 l 744 135 m 204 -269 l 69 -269 l 69 675 l 610 675 l 610 540 l 204 540 l 204 135 l 610 135 l 610 0 l 204 0 l 204 -269 z "},"q":{"ha":814,"x_min":69,"x_max":744,"o":"m 744 -269 l 610 -269 l 610 0 l 204 0 l 204 135 l 610 135 l 610 540 l 204 540 l 204 675 l 744 675 l 744 -269 m 204 135 l 69 135 l 69 540 l 204 540 l 204 135 z "},"r":{"ha":679,"x_min":69,"x_max":610,"o":"m 204 0 l 69 0 l 69 540 l 204 540 l 204 0 m 610 540 l 204 540 l 204 675 l 610 675 l 610 540 z "},"s":{"ha":814,"x_min":69,"x_max":744,"o":"m 744 540 l 204 540 l 204 675 l 744 675 l 744 540 m 204 406 l 69 406 l 69 540 l 204 540 l 204 406 m 610 0 l 69 0 l 69 135 l 610 135 l 610 0 m 744 135 l 610 135 l 610 271 l 744 271 l 744 135 m 610 271 l 204 271 l 204 406 l 610 406 l 610 271 z "},"t":{"ha":679,"x_min":69,"x_max":610,"o":"m 610 0 l 339 0 l 339 135 l 610 135 l 610 0 m 339 135 l 204 135 l 204 540 l 69 540 l 69 675 l 204 675 l 204 944 l 339 944 l 339 675 l 610 675 l 610 540 l 339 540 l 339 135 z "},"u":{"ha":814,"x_min":69,"x_max":744,"o":"m 610 0 l 204 0 l 204 135 l 610 135 l 610 0 m 204 135 l 69 135 l 69 675 l 204 675 l 204 135 m 744 135 l 610 135 l 610 675 l 744 675 l 744 135 z "},"v":{"ha":814,"x_min":69,"x_max":744,"o":"m 474 0 l 339 0 l 339 135 l 474 135 l 474 0 m 339 135 l 204 135 l 204 271 l 339 271 l 339 135 m 610 135 l 474 135 l 474 271 l 610 271 l 610 135 m 204 271 l 69 271 l 69 675 l 204 675 l 204 271 m 744 271 l 610 271 l 610 675 l 744 675 l 744 271 z "},"w":{"ha":1083,"x_min":69,"x_max":1014,"o":"m 474 0 l 204 0 l 204 135 l 474 135 l 474 0 m 204 135 l 69 135 l 69 675 l 204 675 l 204 135 m 1014 135 l 879 135 l 879 675 l 1014 675 l 1014 135 m 610 135 l 474 135 l 474 540 l 610 540 l 610 135 m 610 0 l 610 135 l 879 135 l 879 0 l 610 0 z "},"x":{"ha":814,"x_min":69,"x_max":744,"o":"m 474 271 l 339 271 l 339 406 l 474 406 l 474 271 m 339 406 l 204 406 l 204 540 l 339 540 l 339 406 m 610 406 l 474 406 l 474 540 l 610 540 l 610 406 m 204 540 l 69 540 l 69 675 l 204 675 l 204 540 m 744 540 l 610 540 l 610 675 l 744 675 l 744 540 m 610 135 l 474 135 l 474 271 l 610 271 l 610 135 m 339 135 l 204 135 l 204 271 l 339 271 l 339 135 m 744 0 l 610 0 l 610 135 l 744 135 l 744 0 m 204 0 l 69 0 l 69 135 l 204 135 l 204 0 z "},"y":{"ha":814,"x_min":69,"x_max":744,"o":"m 204 135 l 69 135 l 69 675 l 204 675 l 204 135 m 744 -135 l 610 -135 l 610 0 l 204 0 l 204 135 l 610 135 l 610 675 l 744 675 l 744 -135 m 610 -269 l 69 -269 l 69 -135 l 610 -135 l 610 -269 z "},"z":{"ha":814,"x_min":69,"x_max":744,"o":"m 474 269 l 339 269 l 339 404 l 474 404 l 474 269 m 474 540 l 69 540 l 69 675 l 474 675 l 474 540 m 610 404 l 474 404 l 474 540 l 610 540 l 610 404 m 744 540 l 610 540 l 610 675 l 744 675 l 744 540 m 744 0 l 339 0 l 339 135 l 744 135 l 744 0 m 339 135 l 204 135 l 204 269 l 339 269 l 339 135 m 204 0 l 69 0 l 69 135 l 204 135 l 204 0 z "},"{":{"ha":543,"x_min":69,"x_max":474,"o":"m 474 944 l 339 944 l 339 1079 l 474 1079 l 474 944 m 474 -135 l 339 -135 l 339 0 l 474 0 l 474 -135 m 339 540 l 204 540 l 204 944 l 339 944 l 339 540 m 204 406 l 69 406 l 69 540 l 204 540 l 204 406 m 339 0 l 204 0 l 204 406 l 339 406 l 339 0 z "},"|":{"ha":274,"x_min":69,"x_max":204,"o":"m 204 -135 l 69 -135 l 69 1079 l 204 1079 l 204 -135 z "},"}":{"ha":543,"x_min":69,"x_max":474,"o":"m 204 -135 l 69 -135 l 69 0 l 204 0 l 204 -135 m 204 944 l 69 944 l 69 1079 l 204 1079 l 204 944 m 339 0 l 204 0 l 204 406 l 339 406 l 339 0 m 474 406 l 339 406 l 339 540 l 474 540 l 474 406 m 339 540 l 204 540 l 204 944 l 339 944 l 339 540 z "},"~":{"ha":814,"x_min":69,"x_max":744,"o":"m 610 135 l 474 135 l 474 269 l 610 269 l 610 135 m 744 269 l 610 269 l 610 404 l 744 404 l 744 269 m 204 269 l 69 269 l 69 404 l 204 404 l 204 269 m 339 404 l 204 404 l 204 540 l 339 540 l 339 404 m 474 269 l 339 269 l 339 404 l 474 404 l 474 269 z "},"¡":{"ha":274,"x_min":69,"x_max":204,"o":"m 69 944 l 204 944 l 204 810 l 69 810 l 69 944 m 69 675 l 204 675 l 204 0 l 69 0 l 69 675 z "},"¢":{"ha":814,"x_min":69,"x_max":744,"o":"m 440 404 l 374 404 l 374 540 l 440 540 l 440 404 m 575 607 l 508 607 l 508 742 l 575 742 l 575 607 m 711 810 l 643 810 l 643 944 l 711 944 l 711 810 m 508 540 l 440 540 l 440 607 l 508 607 l 508 540 m 643 742 l 575 742 l 575 810 l 643 810 l 643 742 m 306 203 l 238 203 l 238 338 l 306 338 l 306 203 m 171 0 l 103 0 l 103 135 l 171 135 l 171 0 m 374 338 l 306 338 l 306 404 l 374 404 l 374 338 m 238 135 l 171 135 l 171 203 l 238 203 l 238 135 m 744 540 l 610 540 l 610 675 l 744 675 l 744 540 m 744 269 l 610 269 l 610 404 l 744 404 l 744 269 m 474 675 l 204 675 l 204 810 l 474 810 l 474 675 m 610 135 l 339 135 l 339 269 l 610 269 l 610 135 m 204 269 l 69 269 l 69 675 l 204 675 l 204 269 z "},"£":{"ha":814,"x_min":69,"x_max":744,"o":"m 744 0 l 69 0 l 69 135 l 204 135 l 204 269 l 69 269 l 69 404 l 204 404 l 204 540 l 339 540 l 339 404 l 610 404 l 610 269 l 339 269 l 339 135 l 744 135 l 744 0 m 610 810 l 204 810 l 204 944 l 610 944 l 610 810 m 744 675 l 610 675 l 610 810 l 744 810 l 744 675 m 204 540 l 69 540 l 69 810 l 204 810 l 204 540 z "},"¤":{"ha":1083,"x_min":69,"x_max":1014,"o":"m 879 743 l 811 743 l 811 810 l 879 810 l 879 743 m 947 810 l 879 810 l 879 878 l 947 878 l 947 810 m 1014 878 l 947 878 l 947 944 l 1014 944 l 1014 878 m 138 0 l 69 0 l 69 68 l 138 68 l 138 0 m 204 68 l 138 68 l 138 135 l 204 135 l 204 68 m 272 135 l 204 135 l 204 203 l 272 203 l 272 135 m 272 743 l 204 743 l 204 810 l 272 810 l 272 743 m 204 810 l 138 810 l 138 878 l 204 878 l 204 810 m 138 878 l 69 878 l 69 944 l 138 944 l 138 878 m 1014 0 l 947 0 l 947 68 l 1014 68 l 1014 0 m 947 68 l 879 68 l 879 135 l 947 135 l 947 68 m 879 135 l 811 135 l 811 203 l 879 203 l 879 135 m 744 135 l 339 135 l 339 203 l 272 203 l 272 269 l 204 269 l 204 675 l 272 675 l 272 743 l 339 743 l 339 810 l 744 810 l 744 743 l 811 743 l 811 675 l 879 675 l 879 269 l 811 269 l 811 203 l 744 203 l 744 135 m 744 269 l 744 675 l 339 675 l 339 269 l 744 269 z "},"¥":{"ha":814,"x_min":69,"x_max":744,"o":"m 474 0 l 339 0 l 339 135 l 69 135 l 69 269 l 339 269 l 339 404 l 69 404 l 69 540 l 339 540 l 339 675 l 474 675 l 474 540 l 744 540 l 744 404 l 474 404 l 474 269 l 744 269 l 744 135 l 474 135 l 474 0 m 339 675 l 204 675 l 204 810 l 339 810 l 339 675 m 610 675 l 474 675 l 474 810 l 610 810 l 610 675 m 204 810 l 69 810 l 69 944 l 204 944 l 204 810 m 744 810 l 610 810 l 610 944 l 744 944 l 744 810 z "},"¦":{"ha":274,"x_min":69,"x_max":204,"o":"m 204 -135 l 69 -135 l 69 363 l 204 363 l 204 -135 m 204 582 l 69 582 l 69 1079 l 204 1079 l 204 582 z "},"§":{"ha":814,"x_min":69,"x_max":744,"o":"m 610 810 l 204 810 l 204 944 l 610 944 l 610 810 m 610 404 l 339 404 l 339 540 l 610 540 l 610 404 m 339 540 l 204 540 l 204 675 l 339 675 l 339 540 m 744 675 l 610 675 l 610 810 l 744 810 l 744 675 m 204 675 l 69 675 l 69 810 l 204 810 l 204 675 m 474 135 l 204 135 l 204 269 l 474 269 l 474 135 m 610 0 l 474 0 l 474 135 l 610 135 l 610 0 m 204 269 l 69 269 l 69 540 l 204 540 l 204 269 m 744 135 l 610 135 l 610 404 l 744 404 l 744 135 m 610 -269 l 204 -269 l 204 -135 l 610 -135 l 610 -269 m 744 -135 l 610 -135 l 610 0 l 744 0 l 744 -135 m 204 -135 l 69 -135 l 69 0 l 204 0 l 204 -135 z "},"¨":{"ha":543,"x_min":171,"x_max":374,"o":"m 374 1079 l 306 1079 l 306 1147 l 374 1147 l 374 1079 m 238 1079 l 171 1079 l 171 1147 l 238 1147 l 238 1079 z "},"©":{"ha":1083,"x_min":69,"x_max":1014,"o":"m 744 810 l 339 810 l 339 944 l 744 944 l 744 810 m 744 0 l 339 0 l 339 135 l 744 135 l 744 0 m 204 269 l 69 269 l 69 675 l 204 675 l 204 269 m 339 675 l 204 675 l 204 810 l 339 810 l 339 675 m 744 540 l 474 540 l 474 675 l 744 675 l 744 540 m 1014 269 l 879 269 l 879 675 l 1014 675 l 1014 269 m 879 675 l 744 675 l 744 810 l 879 810 l 879 675 m 474 404 l 339 404 l 339 540 l 474 540 l 474 404 m 744 269 l 474 269 l 474 404 l 744 404 l 744 269 m 339 135 l 204 135 l 204 269 l 339 269 l 339 135 m 879 135 l 744 135 l 744 269 l 879 269 l 879 135 z "},"®":{"ha":1083,"x_min":69,"x_max":1014,"o":"m 744 810 l 339 810 l 339 944 l 744 944 l 744 810 m 744 0 l 339 0 l 339 135 l 744 135 l 744 0 m 339 675 l 204 675 l 204 810 l 339 810 l 339 675 m 204 269 l 69 269 l 69 675 l 204 675 l 204 269 m 1014 269 l 879 269 l 879 675 l 1014 675 l 1014 269 m 879 675 l 744 675 l 744 810 l 879 810 l 879 675 m 744 269 l 610 269 l 610 404 l 474 404 l 474 269 l 339 269 l 339 675 l 744 675 l 744 472 l 676 472 l 676 404 l 744 404 l 744 269 m 610 472 l 610 540 l 474 540 l 474 472 l 610 472 m 339 135 l 204 135 l 204 269 l 339 269 l 339 135 m 879 135 l 744 135 l 744 269 l 879 269 l 879 135 z "},"¯":{"ha":543,"x_min":171,"x_max":374,"o":"m 171 1079 l 171 1147 l 374 1147 l 374 1079 l 171 1079 z "},"°":{"ha":408,"x_min":69,"x_max":339,"o":"m 272 878 l 138 878 l 138 944 l 272 944 l 272 878 m 272 607 l 138 607 l 138 675 l 272 675 l 272 607 m 339 675 l 272 675 l 272 878 l 339 878 l 339 675 m 138 675 l 69 675 l 69 878 l 138 878 l 138 675 z "},"±":{"ha":814,"x_min":69,"x_max":744,"o":"m 474 135 l 744 135 l 744 0 l 69 0 l 69 135 l 339 135 l 339 406 l 69 406 l 69 540 l 339 540 l 339 810 l 474 810 l 474 540 l 744 540 l 744 406 l 474 406 l 474 135 z "},"´":{"ha":543,"x_min":204,"x_max":407,"o":"m 272 1013 l 204 1013 l 204 1079 l 272 1079 l 272 1013 m 339 1079 l 272 1079 l 272 1147 l 339 1147 l 339 1079 m 407 1147 l 339 1147 l 339 1214 l 407 1214 l 407 1147 z "},"µ":{"ha":814,"x_min":69,"x_max":744,"o":"m 204 -269 l 69 -269 l 69 675 l 204 675 l 204 135 l 610 135 l 610 0 l 204 0 l 204 -269 m 744 135 l 610 135 l 610 675 l 744 675 l 744 135 z "},"·":{"ha":274,"x_min":69,"x_max":204,"o":"m 204 404 l 69 404 l 69 540 l 204 540 l 204 404 z "},"∙":{"ha":274,"x_min":69,"x_max":204,"o":"m 204 404 l 69 404 l 69 540 l 204 540 l 204 404 z "},"¸":{"ha":342,"x_min":69,"x_max":272,"o":"m 204 -269 l 138 -269 l 138 -203 l 204 -203 l 204 -269 m 138 -203 l 69 -203 l 69 -135 l 138 -135 l 138 -203 m 272 -203 l 204 -203 l 204 -67 l 272 -67 l 272 -203 m 204 -67 l 138 -67 l 138 0 l 204 0 l 204 -67 z "},"¿":{"ha":814,"x_min":69,"x_max":744,"o":"m 204 135 l 610 135 l 610 0 l 204 0 l 204 135 m 474 944 l 610 944 l 610 810 l 474 810 l 474 944 m 69 269 l 204 269 l 204 135 l 69 135 l 69 269 m 204 406 l 339 406 l 339 269 l 204 269 l 204 406 m 339 540 l 474 540 l 474 406 l 339 406 l 339 540 m 474 675 l 610 675 l 610 540 l 474 540 l 474 675 m 610 269 l 744 269 l 744 135 l 610 135 l 610 269 z "},"À":{"ha":814,"x_min":69,"x_max":744,"o":"m 610 810 l 204 810 l 204 944 l 610 944 l 610 810 m 744 0 l 610 0 l 610 404 l 204 404 l 204 0 l 69 0 l 69 810 l 204 810 l 204 540 l 610 540 l 610 810 l 744 810 l 744 0 m 440 1013 l 374 1013 l 374 1079 l 440 1079 l 440 1013 m 374 1079 l 306 1079 l 306 1147 l 374 1147 l 374 1079 m 306 1147 l 238 1147 l 238 1214 l 306 1214 l 306 1147 z "},"Á":{"ha":814,"x_min":69,"x_max":744,"o":"m 610 810 l 204 810 l 204 944 l 610 944 l 610 810 m 744 0 l 610 0 l 610 404 l 204 404 l 204 0 l 69 0 l 69 810 l 204 810 l 204 540 l 610 540 l 610 810 l 744 810 l 744 0 m 440 1013 l 374 1013 l 374 1079 l 440 1079 l 440 1013 m 508 1079 l 440 1079 l 440 1147 l 508 1147 l 508 1079 m 575 1147 l 508 1147 l 508 1214 l 575 1214 l 575 1147 z "},"Â":{"ha":814,"x_min":69,"x_max":744,"o":"m 440 1147 l 374 1147 l 374 1214 l 440 1214 l 440 1147 m 306 1013 l 238 1013 l 238 1079 l 306 1079 l 306 1013 m 374 1079 l 306 1079 l 306 1147 l 374 1147 l 374 1079 m 508 1079 l 440 1079 l 440 1147 l 508 1147 l 508 1079 m 610 810 l 204 810 l 204 944 l 610 944 l 610 810 m 744 0 l 610 0 l 610 404 l 204 404 l 204 0 l 69 0 l 69 810 l 204 810 l 204 540 l 610 540 l 610 810 l 744 810 l 744 0 m 575 1013 l 508 1013 l 508 1079 l 575 1079 l 575 1013 z "},"Ã":{"ha":814,"x_min":69,"x_max":744,"o":"m 374 1147 l 306 1147 l 306 1214 l 374 1214 l 374 1147 m 575 1079 l 508 1079 l 508 1147 l 575 1147 l 575 1079 m 306 1079 l 238 1079 l 238 1147 l 306 1147 l 306 1079 m 440 1079 l 374 1079 l 374 1147 l 440 1147 l 440 1079 m 610 810 l 204 810 l 204 944 l 610 944 l 610 810 m 744 0 l 610 0 l 610 404 l 204 404 l 204 0 l 69 0 l 69 810 l 204 810 l 204 540 l 610 540 l 610 810 l 744 810 l 744 0 m 508 1013 l 440 1013 l 440 1079 l 508 1079 l 508 1013 z "},"Ä":{"ha":814,"x_min":69,"x_max":744,"o":"m 610 810 l 204 810 l 204 944 l 610 944 l 610 810 m 744 0 l 610 0 l 610 404 l 204 404 l 204 0 l 69 0 l 69 810 l 204 810 l 204 540 l 610 540 l 610 810 l 744 810 l 744 0 m 508 1079 l 440 1079 l 440 1147 l 508 1147 l 508 1079 m 374 1079 l 306 1079 l 306 1147 l 374 1147 l 374 1079 z "},"Å":{"ha":814,"x_min":69,"x_max":744,"o":"m 374 1046 l 306 1046 l 306 1181 l 374 1181 l 374 1046 m 610 810 l 204 810 l 204 944 l 610 944 l 610 810 m 744 0 l 610 0 l 610 404 l 204 404 l 204 0 l 69 0 l 69 810 l 204 810 l 204 540 l 610 540 l 610 810 l 744 810 l 744 0 m 440 978 l 374 978 l 374 1046 l 440 1046 l 440 978 m 508 1046 l 440 1046 l 440 1181 l 508 1181 l 508 1046 m 440 1181 l 374 1181 l 374 1249 l 440 1249 l 440 1181 z "},"Æ":{"ha":1353,"x_min":69,"x_max":1283,"o":"m 610 810 l 204 810 l 204 944 l 610 944 l 610 810 m 1283 0 l 610 0 l 610 404 l 204 404 l 204 0 l 69 0 l 69 810 l 204 810 l 204 540 l 610 540 l 610 810 l 744 810 l 744 540 l 1014 540 l 1014 404 l 744 404 l 744 135 l 1283 135 l 1283 0 m 1283 810 l 744 810 l 744 944 l 1283 944 l 1283 810 z "},"Ç":{"ha":814,"x_min":69,"x_max":744,"o":"m 610 810 l 204 810 l 204 944 l 610 944 l 610 810 m 440 -68 l 374 -68 l 374 0 l 204 0 l 204 135 l 610 135 l 610 0 l 440 0 l 440 -68 m 744 675 l 610 675 l 610 810 l 744 810 l 744 675 m 204 135 l 69 135 l 69 810 l 204 810 l 204 135 m 744 135 l 610 135 l 610 269 l 744 269 l 744 135 m 440 -269 l 374 -269 l 374 -203 l 440 -203 l 440 -269 m 374 -203 l 306 -203 l 306 -135 l 374 -135 l 374 -203 m 508 -203 l 440 -203 l 440 -68 l 508 -68 l 508 -203 z "},"È":{"ha":814,"x_min":69,"x_max":744,"o":"m 744 0 l 69 0 l 69 944 l 744 944 l 744 810 l 204 810 l 204 540 l 474 540 l 474 404 l 204 404 l 204 135 l 744 135 l 744 0 m 440 1013 l 374 1013 l 374 1079 l 440 1079 l 440 1013 m 374 1079 l 306 1079 l 306 1147 l 374 1147 l 374 1079 m 306 1147 l 238 1147 l 238 1214 l 306 1214 l 306 1147 z "},"É":{"ha":814,"x_min":69,"x_max":744,"o":"m 575 1147 l 508 1147 l 508 1214 l 575 1214 l 575 1147 m 440 1013 l 374 1013 l 374 1079 l 440 1079 l 440 1013 m 508 1079 l 440 1079 l 440 1147 l 508 1147 l 508 1079 m 744 0 l 69 0 l 69 944 l 744 944 l 744 810 l 204 810 l 204 540 l 474 540 l 474 404 l 204 404 l 204 135 l 744 135 l 744 0 z "},"Ê":{"ha":814,"x_min":69,"x_max":744,"o":"m 440 1147 l 374 1147 l 374 1214 l 440 1214 l 440 1147 m 306 1013 l 238 1013 l 238 1079 l 306 1079 l 306 1013 m 374 1079 l 306 1079 l 306 1147 l 374 1147 l 374 1079 m 508 1079 l 440 1079 l 440 1147 l 508 1147 l 508 1079 m 744 0 l 69 0 l 69 944 l 744 944 l 744 810 l 204 810 l 204 540 l 474 540 l 474 404 l 204 404 l 204 135 l 744 135 l 744 0 m 575 1013 l 508 1013 l 508 1079 l 575 1079 l 575 1013 z "},"Ë":{"ha":814,"x_min":69,"x_max":744,"o":"m 744 0 l 69 0 l 69 944 l 744 944 l 744 810 l 204 810 l 204 540 l 474 540 l 474 404 l 204 404 l 204 135 l 744 135 l 744 0 m 508 1079 l 440 1079 l 440 1147 l 508 1147 l 508 1079 m 374 1079 l 306 1079 l 306 1147 l 374 1147 l 374 1079 z "},"Ì":{"ha":543,"x_min":69,"x_max":474,"o":"m 474 0 l 69 0 l 69 135 l 204 135 l 204 810 l 69 810 l 69 944 l 474 944 l 474 810 l 339 810 l 339 135 l 474 135 l 474 0 m 339 1013 l 272 1013 l 272 1079 l 339 1079 l 339 1013 m 272 1079 l 204 1079 l 204 1147 l 272 1147 l 272 1079 m 204 1147 l 138 1147 l 138 1214 l 204 1214 l 204 1147 z "},"Í":{"ha":543,"x_min":69,"x_max":474,"o":"m 474 0 l 69 0 l 69 135 l 204 135 l 204 810 l 69 810 l 69 944 l 474 944 l 474 810 l 339 810 l 339 135 l 474 135 l 474 0 m 272 1013 l 204 1013 l 204 1079 l 272 1079 l 272 1013 m 339 1079 l 272 1079 l 272 1147 l 339 1147 l 339 1079 m 407 1147 l 339 1147 l 339 1214 l 407 1214 l 407 1147 z "},"Î":{"ha":543,"x_min":69,"x_max":474,"o":"m 474 0 l 69 0 l 69 135 l 204 135 l 204 810 l 69 810 l 69 944 l 474 944 l 474 810 l 339 810 l 339 135 l 474 135 l 474 0 m 171 1013 l 103 1013 l 103 1079 l 171 1079 l 171 1013 m 238 1079 l 171 1079 l 171 1147 l 238 1147 l 238 1079 m 306 1147 l 238 1147 l 238 1214 l 306 1214 l 306 1147 m 440 1013 l 374 1013 l 374 1079 l 440 1079 l 440 1013 m 374 1079 l 306 1079 l 306 1147 l 374 1147 l 374 1079 z "},"Ï":{"ha":543,"x_min":69,"x_max":474,"o":"m 474 0 l 69 0 l 69 135 l 204 135 l 204 810 l 69 810 l 69 944 l 474 944 l 474 810 l 339 810 l 339 135 l 474 135 l 474 0 m 374 1079 l 306 1079 l 306 1147 l 374 1147 l 374 1079 m 238 1079 l 171 1079 l 171 1147 l 238 1147 l 238 1079 z "},"Ð":{"ha":949,"x_min":69,"x_max":879,"o":"m 744 0 l 204 0 l 204 404 l 69 404 l 69 540 l 204 540 l 204 944 l 744 944 l 744 810 l 339 810 l 339 540 l 610 540 l 610 404 l 339 404 l 339 135 l 744 135 l 744 0 m 879 135 l 744 135 l 744 810 l 879 810 l 879 135 z "},"Ñ":{"ha":814,"x_min":69,"x_max":744,"o":"m 474 675 l 339 675 l 339 810 l 474 810 l 474 675 m 204 0 l 69 0 l 69 944 l 339 944 l 339 810 l 204 810 l 204 0 m 744 0 l 610 0 l 610 540 l 474 540 l 474 675 l 610 675 l 610 944 l 744 944 l 744 0 m 575 1079 l 508 1079 l 508 1147 l 575 1147 l 575 1079 m 306 1079 l 238 1079 l 238 1147 l 306 1147 l 306 1079 m 374 1147 l 306 1147 l 306 1214 l 374 1214 l 374 1147 m 508 1013 l 440 1013 l 440 1079 l 508 1079 l 508 1013 m 440 1079 l 374 1079 l 374 1147 l 440 1147 l 440 1079 z "},"Ò":{"ha":814,"x_min":69,"x_max":744,"o":"m 610 810 l 204 810 l 204 944 l 610 944 l 610 810 m 610 0 l 204 0 l 204 135 l 610 135 l 610 0 m 744 135 l 610 135 l 610 810 l 744 810 l 744 135 m 204 135 l 69 135 l 69 810 l 204 810 l 204 135 m 440 1013 l 374 1013 l 374 1079 l 440 1079 l 440 1013 m 374 1079 l 306 1079 l 306 1147 l 374 1147 l 374 1079 m 306 1147 l 238 1147 l 238 1214 l 306 1214 l 306 1147 z "},"Ó":{"ha":814,"x_min":69,"x_max":744,"o":"m 610 810 l 204 810 l 204 944 l 610 944 l 610 810 m 610 0 l 204 0 l 204 135 l 610 135 l 610 0 m 744 135 l 610 135 l 610 810 l 744 810 l 744 135 m 204 135 l 69 135 l 69 810 l 204 810 l 204 135 m 440 1013 l 374 1013 l 374 1079 l 440 1079 l 440 1013 m 508 1079 l 440 1079 l 440 1147 l 508 1147 l 508 1079 m 575 1147 l 508 1147 l 508 1214 l 575 1214 l 575 1147 z "},"Ô":{"ha":814,"x_min":69,"x_max":744,"o":"m 610 810 l 204 810 l 204 944 l 610 944 l 610 810 m 610 0 l 204 0 l 204 135 l 610 135 l 610 0 m 744 135 l 610 135 l 610 810 l 744 810 l 744 135 m 204 135 l 69 135 l 69 810 l 204 810 l 204 135 m 306 1013 l 238 1013 l 238 1079 l 306 1079 l 306 1013 m 374 1079 l 306 1079 l 306 1147 l 374 1147 l 374 1079 m 440 1147 l 374 1147 l 374 1214 l 440 1214 l 440 1147 m 575 1013 l 508 1013 l 508 1079 l 575 1079 l 575 1013 m 508 1079 l 440 1079 l 440 1147 l 508 1147 l 508 1079 z "},"Õ":{"ha":814,"x_min":69,"x_max":744,"o":"m 610 810 l 204 810 l 204 944 l 610 944 l 610 810 m 610 0 l 204 0 l 204 135 l 610 135 l 610 0 m 744 135 l 610 135 l 610 810 l 744 810 l 744 135 m 204 135 l 69 135 l 69 810 l 204 810 l 204 135 m 575 1079 l 508 1079 l 508 1147 l 575 1147 l 575 1079 m 306 1079 l 238 1079 l 238 1147 l 306 1147 l 306 1079 m 374 1147 l 306 1147 l 306 1214 l 374 1214 l 374 1147 m 508 1013 l 440 1013 l 440 1079 l 508 1079 l 508 1013 m 440 1079 l 374 1079 l 374 1147 l 440 1147 l 440 1079 z "},"Ö":{"ha":814,"x_min":69,"x_max":744,"o":"m 610 810 l 204 810 l 204 944 l 610 944 l 610 810 m 610 0 l 204 0 l 204 135 l 610 135 l 610 0 m 744 135 l 610 135 l 610 810 l 744 810 l 744 135 m 204 135 l 69 135 l 69 810 l 204 810 l 204 135 m 508 1079 l 440 1079 l 440 1147 l 508 1147 l 508 1079 m 374 1079 l 306 1079 l 306 1147 l 374 1147 l 374 1079 z "},"×":{"ha":814,"x_min":69,"x_max":744,"o":"m 474 404 l 339 404 l 339 540 l 474 540 l 474 404 m 339 540 l 204 540 l 204 675 l 339 675 l 339 540 m 610 540 l 474 540 l 474 675 l 610 675 l 610 540 m 204 675 l 69 675 l 69 810 l 204 810 l 204 675 m 744 675 l 610 675 l 610 810 l 744 810 l 744 675 m 610 269 l 474 269 l 474 404 l 610 404 l 610 269 m 339 269 l 204 269 l 204 404 l 339 404 l 339 269 m 744 135 l 610 135 l 610 269 l 744 269 l 744 135 m 204 135 l 69 135 l 69 269 l 204 269 l 204 135 z "},"Ø":{"ha":814,"x_min":69,"x_max":744,"o":"m 744 135 l 610 135 l 610 742 l 575 742 l 575 810 l 204 810 l 204 944 l 610 944 l 610 810 l 643 810 l 643 742 l 744 742 l 744 135 m 440 404 l 374 404 l 374 540 l 440 540 l 440 404 m 575 607 l 508 607 l 508 742 l 575 742 l 575 607 m 711 810 l 643 810 l 643 944 l 711 944 l 711 810 m 508 540 l 440 540 l 440 607 l 508 607 l 508 540 m 306 203 l 238 203 l 238 338 l 306 338 l 306 203 m 171 0 l 103 0 l 103 135 l 171 135 l 171 0 m 374 338 l 306 338 l 306 404 l 374 404 l 374 338 m 610 0 l 204 0 l 204 135 l 171 135 l 171 203 l 69 203 l 69 810 l 204 810 l 204 203 l 238 203 l 238 135 l 610 135 l 610 0 z "},"Œ":{"ha":1353,"x_min":69,"x_max":1283,"o":"m 610 810 l 204 810 l 204 944 l 610 944 l 610 810 m 610 0 l 204 0 l 204 135 l 610 135 l 610 0 m 204 135 l 69 135 l 69 810 l 204 810 l 204 135 m 1283 0 l 744 0 l 744 135 l 1283 135 l 1283 0 m 744 135 l 610 135 l 610 810 l 744 810 l 744 540 l 1014 540 l 1014 404 l 744 404 l 744 135 m 1283 810 l 744 810 l 744 944 l 1283 944 l 1283 810 z "},"Ù":{"ha":2085,"x_min":69,"x_max":744,"o":"m 610 0 l 204 0 l 204 135 l 610 135 l 610 0 m 744 135 l 610 135 l 610 944 l 744 944 l 744 135 m 204 135 l 69 135 l 69 944 l 204 944 l 204 135 m 440 1013 l 374 1013 l 374 1079 l 440 1079 l 440 1013 m 374 1079 l 306 1079 l 306 1147 l 374 1147 l 374 1079 m 306 1147 l 238 1147 l 238 1214 l 306 1214 l 306 1147 z "},"Ú":{"ha":814,"x_min":69,"x_max":744,"o":"m 610 0 l 204 0 l 204 135 l 610 135 l 610 0 m 744 135 l 610 135 l 610 944 l 744 944 l 744 135 m 204 135 l 69 135 l 69 944 l 204 944 l 204 135 m 440 1013 l 374 1013 l 374 1079 l 440 1079 l 440 1013 m 508 1079 l 440 1079 l 440 1147 l 508 1147 l 508 1079 m 575 1147 l 508 1147 l 508 1214 l 575 1214 l 575 1147 z "},"Û":{"ha":814,"x_min":69,"x_max":744,"o":"m 610 0 l 204 0 l 204 135 l 610 135 l 610 0 m 744 135 l 610 135 l 610 944 l 744 944 l 744 135 m 204 135 l 69 135 l 69 944 l 204 944 l 204 135 m 306 1013 l 238 1013 l 238 1079 l 306 1079 l 306 1013 m 374 1079 l 306 1079 l 306 1147 l 374 1147 l 374 1079 m 440 1147 l 374 1147 l 374 1214 l 440 1214 l 440 1147 m 575 1013 l 508 1013 l 508 1079 l 575 1079 l 575 1013 m 508 1079 l 440 1079 l 440 1147 l 508 1147 l 508 1079 z "},"Ü":{"ha":814,"x_min":69,"x_max":744,"o":"m 610 0 l 204 0 l 204 135 l 610 135 l 610 0 m 744 135 l 610 135 l 610 944 l 744 944 l 744 135 m 204 135 l 69 135 l 69 944 l 204 944 l 204 135 m 508 1079 l 440 1079 l 440 1147 l 508 1147 l 508 1079 m 374 1079 l 306 1079 l 306 1147 l 374 1147 l 374 1079 z "},"Ý":{"ha":814,"x_min":69,"x_max":744,"o":"m 474 0 l 339 0 l 339 404 l 474 404 l 474 0 m 339 404 l 204 404 l 204 540 l 339 540 l 339 404 m 610 404 l 474 404 l 474 540 l 610 540 l 610 404 m 204 540 l 69 540 l 69 944 l 204 944 l 204 540 m 744 540 l 610 540 l 610 944 l 744 944 l 744 540 m 440 1013 l 374 1013 l 374 1079 l 440 1079 l 440 1013 m 508 1079 l 440 1079 l 440 1147 l 508 1147 l 508 1079 m 575 1147 l 508 1147 l 508 1214 l 575 1214 l 575 1147 z "},"Þ":{"ha":814,"x_min":69,"x_max":744,"o":"m 204 0 l 69 0 l 69 944 l 204 944 l 204 810 l 610 810 l 610 675 l 204 675 l 204 269 l 610 269 l 610 135 l 204 135 l 204 0 m 744 269 l 610 269 l 610 675 l 744 675 l 744 269 z "},"ß":{"ha":814,"x_min":69,"x_max":744,"o":"m 474 810 l 204 810 l 204 944 l 474 944 l 474 810 m 610 0 l 339 0 l 339 135 l 610 135 l 610 0 m 474 540 l 339 540 l 339 675 l 474 675 l 474 540 m 610 404 l 474 404 l 474 540 l 610 540 l 610 404 m 744 135 l 610 135 l 610 404 l 744 404 l 744 135 m 610 675 l 474 675 l 474 810 l 610 810 l 610 675 m 204 0 l 69 0 l 69 810 l 204 810 l 204 0 z "},"à":{"ha":814,"x_min":69,"x_max":744,"o":"m 440 742 l 374 742 l 374 810 l 440 810 l 440 742 m 374 810 l 306 810 l 306 878 l 374 878 l 374 810 m 306 878 l 238 878 l 238 944 l 306 944 l 306 878 m 204 135 l 69 135 l 69 269 l 204 269 l 204 135 m 610 540 l 69 540 l 69 675 l 610 675 l 610 540 m 744 0 l 204 0 l 204 135 l 610 135 l 610 269 l 204 269 l 204 404 l 610 404 l 610 540 l 744 540 l 744 0 z "},"á":{"ha":814,"x_min":69,"x_max":744,"o":"m 440 742 l 374 742 l 374 810 l 440 810 l 440 742 m 508 810 l 440 810 l 440 878 l 508 878 l 508 810 m 575 878 l 508 878 l 508 944 l 575 944 l 575 878 m 204 135 l 69 135 l 69 269 l 204 269 l 204 135 m 610 540 l 69 540 l 69 675 l 610 675 l 610 540 m 744 0 l 204 0 l 204 135 l 610 135 l 610 269 l 204 269 l 204 404 l 610 404 l 610 540 l 744 540 l 744 0 z "},"â":{"ha":814,"x_min":69,"x_max":744,"o":"m 306 742 l 239 742 l 239 810 l 306 810 l 306 742 m 374 810 l 306 810 l 306 878 l 374 878 l 374 810 m 440 878 l 374 878 l 374 944 l 440 944 l 440 878 m 576 742 l 508 742 l 508 810 l 576 810 l 576 742 m 508 810 l 440 810 l 440 878 l 508 878 l 508 810 m 204 135 l 69 135 l 69 269 l 204 269 l 204 135 m 610 540 l 69 540 l 69 675 l 610 675 l 610 540 m 744 0 l 204 0 l 204 135 l 610 135 l 610 269 l 204 269 l 204 404 l 610 404 l 610 540 l 744 540 l 744 0 z "},"ã":{"ha":814,"x_min":69,"x_max":744,"o":"m 576 810 l 508 810 l 508 878 l 576 878 l 576 810 m 306 810 l 239 810 l 239 878 l 306 878 l 306 810 m 374 878 l 306 878 l 306 944 l 374 944 l 374 878 m 508 742 l 440 742 l 440 810 l 508 810 l 508 742 m 440 810 l 374 810 l 374 878 l 440 878 l 440 810 m 204 135 l 69 135 l 69 269 l 204 269 l 204 135 m 610 540 l 69 540 l 69 675 l 610 675 l 610 540 m 744 0 l 204 0 l 204 135 l 610 135 l 610 269 l 204 269 l 204 404 l 610 404 l 610 540 l 744 540 l 744 0 z "},"ä":{"ha":814,"x_min":69,"x_max":744,"o":"m 508 810 l 442 810 l 442 878 l 508 878 l 508 810 m 374 810 l 306 810 l 306 878 l 374 878 l 374 810 m 204 135 l 69 135 l 69 269 l 204 269 l 204 135 m 610 540 l 69 540 l 69 675 l 610 675 l 610 540 m 744 0 l 204 0 l 204 135 l 610 135 l 610 269 l 204 269 l 204 404 l 610 404 l 610 540 l 744 540 l 744 0 z "},"å":{"ha":814,"x_min":69,"x_max":744,"o":"m 374 911 l 374 776 l 306 776 l 306 911 l 374 911 m 442 911 l 374 911 l 374 978 l 442 978 l 442 911 m 744 0 l 206 0 l 206 135 l 610 135 l 610 269 l 206 269 l 206 404 l 610 404 l 610 540 l 744 540 l 744 0 m 442 708 l 374 708 l 374 776 l 442 776 l 442 708 m 508 776 l 442 776 l 442 911 l 508 911 l 508 776 m 206 135 l 69 135 l 69 269 l 206 269 l 206 135 m 610 540 l 69 540 l 69 675 l 610 675 l 610 540 z "},"æ":{"ha":1353,"x_min":69,"x_max":1283,"o":"m 610 269 l 204 269 l 204 404 l 610 404 l 610 540 l 744 540 l 744 404 l 1149 404 l 1149 540 l 1283 540 l 1283 269 l 744 269 l 744 135 l 610 135 l 610 269 m 1149 540 l 744 540 l 744 675 l 1149 675 l 1149 540 m 1149 0 l 744 0 l 744 135 l 1149 135 l 1149 0 m 204 135 l 69 135 l 69 269 l 204 269 l 204 135 m 610 540 l 69 540 l 69 675 l 610 675 l 610 540 m 610 0 l 204 0 l 204 135 l 610 135 l 610 0 z "},"ç":{"ha":814,"x_min":69,"x_max":744,"o":"m 508 -203 l 440 -203 l 440 -67 l 508 -67 l 508 -203 m 610 540 l 204 540 l 204 675 l 610 675 l 610 540 m 440 -67 l 374 -67 l 374 0 l 204 0 l 204 135 l 610 135 l 610 0 l 440 0 l 440 -67 m 744 406 l 610 406 l 610 540 l 744 540 l 744 406 m 204 135 l 69 135 l 69 540 l 204 540 l 204 135 m 744 135 l 610 135 l 610 271 l 744 271 l 744 135 m 440 -269 l 374 -269 l 374 -203 l 440 -203 l 440 -269 m 374 -203 l 306 -203 l 306 -135 l 374 -135 l 374 -203 z "},"è":{"ha":814,"x_min":69,"x_max":744,"o":"m 306 878 l 238 878 l 238 944 l 306 944 l 306 878 m 204 135 l 69 135 l 69 540 l 204 540 l 204 404 l 610 404 l 610 540 l 744 540 l 744 269 l 204 269 l 204 135 m 610 540 l 204 540 l 204 675 l 610 675 l 610 540 m 610 0 l 204 0 l 204 135 l 610 135 l 610 0 m 440 742 l 374 742 l 374 810 l 440 810 l 440 742 m 374 810 l 306 810 l 306 878 l 374 878 l 374 810 z "},"é":{"ha":1263,"x_min":69,"x_max":744,"o":"m 575 878 l 508 878 l 508 944 l 575 944 l 575 878 m 440 742 l 372 742 l 372 810 l 440 810 l 440 742 m 508 810 l 440 810 l 440 878 l 508 878 l 508 810 m 204 135 l 69 135 l 69 540 l 204 540 l 204 404 l 610 404 l 610 540 l 744 540 l 744 269 l 204 269 l 204 135 m 610 540 l 204 540 l 204 675 l 610 675 l 610 540 m 610 0 l 204 0 l 204 135 l 610 135 l 610 0 z "},"ê":{"ha":814,"x_min":69,"x_max":744,"o":"m 306 742 l 238 742 l 238 810 l 306 810 l 306 742 m 372 810 l 306 810 l 306 878 l 372 878 l 372 810 m 440 878 l 372 878 l 372 944 l 440 944 l 440 878 m 575 742 l 508 742 l 508 810 l 575 810 l 575 742 m 508 810 l 440 810 l 440 878 l 508 878 l 508 810 m 204 135 l 69 135 l 69 540 l 204 540 l 204 404 l 608 404 l 608 540 l 744 540 l 744 269 l 204 269 l 204 135 m 608 540 l 204 540 l 204 675 l 608 675 l 608 540 m 608 0 l 204 0 l 204 135 l 608 135 l 608 0 z "},"ë":{"ha":813,"x_min":69,"x_max":743,"o":"m 507 810 l 440 810 l 440 878 l 507 878 l 507 810 m 372 810 l 306 810 l 306 878 l 372 878 l 372 810 m 204 135 l 69 135 l 69 540 l 204 540 l 204 404 l 608 404 l 608 540 l 743 540 l 743 269 l 204 269 l 204 135 m 608 540 l 204 540 l 204 675 l 608 675 l 608 540 m 608 0 l 204 0 l 204 135 l 608 135 l 608 0 z "},"ì":{"ha":274,"x_min":0,"x_max":204,"o":"m 204 0 l 69 0 l 69 675 l 204 675 l 204 0 m 68 878 l 0 878 l 0 944 l 68 944 l 68 878 m 203 742 l 136 742 l 136 810 l 203 810 l 203 742 m 136 810 l 68 810 l 68 878 l 136 878 l 136 810 z "},"í":{"ha":272,"x_min":69,"x_max":272,"o":"m 204 0 l 69 0 l 69 675 l 204 675 l 204 0 m 272 878 l 206 878 l 206 944 l 272 944 l 272 878 m 138 742 l 69 742 l 69 810 l 138 810 l 138 742 m 206 810 l 138 810 l 138 878 l 206 878 l 206 810 z "},"î":{"ha":274,"x_min":-32,"x_max":306,"o":"m 204 0 l 69 0 l 69 675 l 204 675 l 204 0 m 36 742 l -32 742 l -32 810 l 36 810 l 36 742 m 103 810 l 36 810 l 36 878 l 103 878 l 103 810 m 171 878 l 103 878 l 103 944 l 171 944 l 171 878 m 306 742 l 239 742 l 239 810 l 306 810 l 306 742 m 239 810 l 171 810 l 171 878 l 239 878 l 239 810 z "},"ï":{"ha":274,"x_min":36,"x_max":238,"o":"m 204 0 l 69 0 l 69 675 l 204 675 l 204 0 m 238 810 l 171 810 l 171 878 l 238 878 l 238 810 m 103 810 l 36 810 l 36 878 l 103 878 l 103 810 z "},"ð":{"ha":949,"x_min":69,"x_max":879,"o":"m 204 135 l 69 135 l 69 540 l 204 540 l 204 135 m 744 0 l 204 0 l 204 135 l 610 135 l 610 540 l 204 540 l 204 675 l 610 675 l 610 776 l 475 776 l 475 843 l 610 843 l 610 944 l 744 944 l 744 843 l 879 843 l 879 776 l 744 776 l 744 0 z "},"ñ":{"ha":814,"x_min":69,"x_max":744,"o":"m 204 0 l 69 0 l 69 675 l 610 675 l 610 540 l 204 540 l 204 0 m 744 0 l 610 0 l 610 540 l 744 540 l 744 0 m 576 810 l 508 810 l 508 878 l 576 878 l 576 810 m 306 810 l 239 810 l 239 878 l 306 878 l 306 810 m 374 878 l 306 878 l 306 944 l 374 944 l 374 878 m 508 742 l 440 742 l 440 810 l 508 810 l 508 742 m 440 810 l 374 810 l 374 878 l 440 878 l 440 810 z "},"ò":{"ha":814,"x_min":69,"x_max":744,"o":"m 610 540 l 204 540 l 204 675 l 610 675 l 610 540 m 744 135 l 610 135 l 610 540 l 744 540 l 744 135 m 610 0 l 204 0 l 204 135 l 610 135 l 610 0 m 204 135 l 69 135 l 69 540 l 204 540 l 204 135 m 440 742 l 374 742 l 374 810 l 440 810 l 440 742 m 374 810 l 306 810 l 306 878 l 374 878 l 374 810 m 306 878 l 238 878 l 238 944 l 306 944 l 306 878 z "},"ó":{"ha":814,"x_min":69,"x_max":744,"o":"m 610 540 l 204 540 l 204 675 l 610 675 l 610 540 m 744 135 l 610 135 l 610 540 l 744 540 l 744 135 m 610 0 l 204 0 l 204 135 l 610 135 l 610 0 m 204 135 l 69 135 l 69 540 l 204 540 l 204 135 m 440 742 l 374 742 l 374 810 l 440 810 l 440 742 m 508 810 l 440 810 l 440 878 l 508 878 l 508 810 m 575 878 l 508 878 l 508 944 l 575 944 l 575 878 z "},"ô":{"ha":814,"x_min":69,"x_max":744,"o":"m 610 540 l 204 540 l 204 675 l 610 675 l 610 540 m 744 135 l 610 135 l 610 540 l 744 540 l 744 135 m 610 0 l 204 0 l 204 135 l 610 135 l 610 0 m 204 135 l 69 135 l 69 540 l 204 540 l 204 135 m 306 742 l 239 742 l 239 810 l 306 810 l 306 742 m 374 810 l 306 810 l 306 878 l 374 878 l 374 810 m 440 878 l 374 878 l 374 944 l 440 944 l 440 878 m 576 742 l 508 742 l 508 810 l 576 810 l 576 742 m 508 810 l 440 810 l 440 878 l 508 878 l 508 810 z "},"õ":{"ha":814,"x_min":69,"x_max":744,"o":"m 610 540 l 204 540 l 204 675 l 610 675 l 610 540 m 744 135 l 610 135 l 610 540 l 744 540 l 744 135 m 610 0 l 204 0 l 204 135 l 610 135 l 610 0 m 204 135 l 69 135 l 69 540 l 204 540 l 204 135 m 576 810 l 508 810 l 508 878 l 576 878 l 576 810 m 306 810 l 239 810 l 239 878 l 306 878 l 306 810 m 374 878 l 306 878 l 306 944 l 374 944 l 374 878 m 508 742 l 440 742 l 440 810 l 508 810 l 508 742 m 440 810 l 374 810 l 374 878 l 440 878 l 440 810 z "},"ö":{"ha":814,"x_min":69,"x_max":744,"o":"m 610 540 l 204 540 l 204 675 l 610 675 l 610 540 m 744 135 l 610 135 l 610 540 l 744 540 l 744 135 m 610 0 l 204 0 l 204 135 l 610 135 l 610 0 m 204 135 l 69 135 l 69 540 l 204 540 l 204 135 m 508 810 l 442 810 l 442 878 l 508 878 l 508 810 m 374 810 l 306 810 l 306 878 l 374 878 l 374 810 z "},"÷":{"ha":814,"x_min":69,"x_max":744,"o":"m 474 675 l 339 675 l 339 810 l 474 810 l 474 675 m 474 135 l 339 135 l 339 269 l 474 269 l 474 135 m 744 404 l 69 404 l 69 539 l 744 539 l 744 404 z "},"ø":{"ha":813,"x_min":69,"x_max":743,"o":"m 440 304 l 372 304 l 372 371 l 440 371 l 440 304 m 507 371 l 440 371 l 440 439 l 507 439 l 507 371 m 575 439 l 507 439 l 507 506 l 575 506 l 575 439 m 710 574 l 643 574 l 643 642 l 710 642 l 710 574 m 171 33 l 103 33 l 103 101 l 171 101 l 171 33 m 608 0 l 238 0 l 238 101 l 171 101 l 171 168 l 69 168 l 69 540 l 204 540 l 204 168 l 238 168 l 238 135 l 608 135 l 608 0 m 306 168 l 238 168 l 238 236 l 306 236 l 306 168 m 372 236 l 306 236 l 306 304 l 372 304 l 372 236 m 743 135 l 608 135 l 608 506 l 575 506 l 575 540 l 204 540 l 204 675 l 575 675 l 575 574 l 643 574 l 643 506 l 743 506 l 743 135 z "},"œ":{"ha":1353,"x_min":69,"x_max":1283,"o":"m 608 540 l 204 540 l 204 675 l 608 675 l 608 540 m 608 0 l 204 0 l 204 135 l 608 135 l 608 0 m 204 135 l 69 135 l 69 540 l 204 540 l 204 135 m 743 135 l 608 135 l 608 540 l 743 540 l 743 404 l 1149 404 l 1149 540 l 1283 540 l 1283 269 l 743 269 l 743 135 m 1149 540 l 743 540 l 743 675 l 1149 675 l 1149 540 m 1149 0 l 743 0 l 743 135 l 1149 135 l 1149 0 z "},"ù":{"ha":814,"x_min":69,"x_max":744,"o":"m 610 0 l 204 0 l 204 135 l 610 135 l 610 0 m 204 135 l 69 135 l 69 675 l 204 675 l 204 135 m 744 135 l 610 135 l 610 675 l 744 675 l 744 135 m 306 878 l 238 878 l 238 944 l 306 944 l 306 878 m 440 742 l 374 742 l 374 810 l 440 810 l 440 742 m 374 810 l 306 810 l 306 878 l 374 878 l 374 810 z "},"ú":{"ha":814,"x_min":69,"x_max":744,"o":"m 610 0 l 204 0 l 204 135 l 610 135 l 610 0 m 204 135 l 69 135 l 69 675 l 204 675 l 204 135 m 744 135 l 610 135 l 610 675 l 744 675 l 744 135 m 575 878 l 508 878 l 508 944 l 575 944 l 575 878 m 440 742 l 372 742 l 372 810 l 440 810 l 440 742 m 508 810 l 440 810 l 440 878 l 508 878 l 508 810 z "},"û":{"ha":814,"x_min":69,"x_max":744,"o":"m 610 0 l 204 0 l 204 135 l 610 135 l 610 0 m 204 135 l 69 135 l 69 675 l 204 675 l 204 135 m 744 135 l 610 135 l 610 675 l 744 675 l 744 135 m 306 742 l 238 742 l 238 810 l 306 810 l 306 742 m 372 810 l 306 810 l 306 878 l 372 878 l 372 810 m 440 878 l 372 878 l 372 944 l 440 944 l 440 878 m 575 742 l 508 742 l 508 810 l 575 810 l 575 742 m 508 810 l 440 810 l 440 878 l 508 878 l 508 810 z "},"ü":{"ha":814,"x_min":69,"x_max":744,"o":"m 610 0 l 204 0 l 204 135 l 610 135 l 610 0 m 204 135 l 69 135 l 69 675 l 204 675 l 204 135 m 744 135 l 610 135 l 610 675 l 744 675 l 744 135 m 507 810 l 440 810 l 440 878 l 507 878 l 507 810 m 372 810 l 306 810 l 306 878 l 372 878 l 372 810 z "},"ý":{"ha":814,"x_min":69,"x_max":744,"o":"m 204 135 l 69 135 l 69 675 l 204 675 l 204 135 m 744 -135 l 610 -135 l 610 0 l 204 0 l 204 135 l 610 135 l 610 675 l 744 675 l 744 -135 m 610 -269 l 69 -269 l 69 -135 l 610 -135 l 610 -269 m 575 878 l 508 878 l 508 944 l 575 944 l 575 878 m 440 742 l 372 742 l 372 810 l 440 810 l 440 742 m 508 810 l 440 810 l 440 878 l 508 878 l 508 810 z "},"þ":{"ha":814,"x_min":69,"x_max":744,"o":"m 744 135 l 610 135 l 610 540 l 744 540 l 744 135 m 610 0 l 339 0 l 339 135 l 610 135 l 610 0 m 204 0 l 69 0 l 69 944 l 204 944 l 204 675 l 610 675 l 610 540 l 204 540 l 204 269 l 339 269 l 339 135 l 204 135 l 204 0 z "},"ÿ":{"ha":814,"x_min":69,"x_max":744,"o":"m 204 135 l 69 135 l 69 675 l 204 675 l 204 135 m 744 -135 l 610 -135 l 610 0 l 204 0 l 204 135 l 610 135 l 610 675 l 744 675 l 744 -135 m 610 -269 l 69 -269 l 69 -135 l 610 -135 l 610 -269 m 507 810 l 440 810 l 440 878 l 507 878 l 507 810 m 372 810 l 306 810 l 306 878 l 372 878 l 372 810 z "},"̀":{"ha":543,"x_min":138,"x_max":339,"o":"m 339 1013 l 272 1013 l 272 1079 l 339 1079 l 339 1013 m 272 1079 l 204 1079 l 204 1147 l 272 1147 l 272 1079 m 204 1147 l 138 1147 l 138 1214 l 204 1214 l 204 1147 z "},"́":{"ha":543,"x_min":204,"x_max":407,"o":"m 272 1013 l 204 1013 l 204 1079 l 272 1079 l 272 1013 m 339 1079 l 272 1079 l 272 1147 l 339 1147 l 339 1079 m 407 1147 l 339 1147 l 339 1214 l 407 1214 l 407 1147 z "},"̂":{"ha":543,"x_min":103,"x_max":440,"o":"m 171 1013 l 103 1013 l 103 1079 l 171 1079 l 171 1013 m 238 1079 l 171 1079 l 171 1147 l 238 1147 l 238 1079 m 306 1147 l 238 1147 l 238 1214 l 306 1214 l 306 1147 m 440 1013 l 374 1013 l 374 1079 l 440 1079 l 440 1013 m 374 1079 l 306 1079 l 306 1147 l 374 1147 l 374 1079 z "},"̃":{"ha":676,"x_min":169,"x_max":507,"o":"m 306 1147 l 238 1147 l 238 1214 l 306 1214 l 306 1147 m 507 1079 l 440 1079 l 440 1147 l 507 1147 l 507 1079 m 238 1079 l 169 1079 l 169 1147 l 238 1147 l 238 1079 m 372 1079 l 306 1079 l 306 1147 l 372 1147 l 372 1079 m 440 1013 l 372 1013 l 372 1079 l 440 1079 l 440 1013 z "},"̄":{"ha":543,"x_min":171,"x_max":374,"o":"m 171 1079 l 171 1147 l 374 1147 l 374 1079 l 171 1079 z "},"̇":{"ha":543,"x_min":238,"x_max":306,"o":"m 306 1079 l 238 1079 l 238 1147 l 306 1147 l 306 1079 z "},"̈":{"ha":543,"x_min":171,"x_max":374,"o":"m 374 1079 l 306 1079 l 306 1147 l 374 1147 l 374 1079 m 239 1079 l 171 1079 l 171 1147 l 239 1147 l 239 1079 z "},"̊":{"ha":542,"x_min":169,"x_max":372,"o":"m 238 1046 l 169 1046 l 169 1181 l 238 1181 l 238 1046 m 304 978 l 238 978 l 238 1046 l 304 1046 l 304 978 m 372 1046 l 304 1046 l 304 1181 l 372 1181 l 372 1046 m 304 1181 l 238 1181 l 238 1249 l 304 1249 l 304 1181 z "},"̌":{"ha":543,"x_min":103,"x_max":440,"o":"m 372 1214 l 440 1214 l 440 1147 l 372 1147 l 372 1214 m 306 1147 l 372 1147 l 372 1079 l 306 1079 l 306 1147 m 238 1079 l 306 1079 l 306 1013 l 238 1013 l 238 1079 m 103 1214 l 171 1214 l 171 1147 l 103 1147 l 103 1214 m 171 1147 l 238 1147 l 238 1079 l 171 1079 l 171 1147 z "},"̧":{"ha":342,"x_min":69,"x_max":272,"o":"m 204 -269 l 138 -269 l 138 -203 l 204 -203 l 204 -269 m 138 -203 l 69 -203 l 69 -135 l 138 -135 l 138 -203 m 272 -203 l 204 -203 l 204 -67 l 272 -67 l 272 -203 m 204 -67 l 138 -67 l 138 0 l 204 0 l 204 -67 z "},"€":{"ha":949,"x_min":69,"x_max":879,"o":"m 744 810 l 339 810 l 339 944 l 744 944 l 744 810 m 744 0 l 339 0 l 339 135 l 744 135 l 744 0 m 879 675 l 744 675 l 744 810 l 879 810 l 879 675 m 339 135 l 204 135 l 204 269 l 69 269 l 69 404 l 204 404 l 204 540 l 69 540 l 69 675 l 204 675 l 204 810 l 339 810 l 339 675 l 610 675 l 610 540 l 339 540 l 339 404 l 610 404 l 610 269 l 339 269 l 339 135 m 879 135 l 744 135 l 744 269 l 879 269 l 879 135 z "},"™":{"ha":1081,"x_min":69,"x_max":1011,"o":"m 339 675 l 204 675 l 204 944 l 69 944 l 69 1079 l 474 1079 l 474 944 l 339 944 l 339 675 m 674 675 l 539 675 l 539 1079 l 674 1079 l 674 1013 l 742 1013 l 742 944 l 674 944 l 674 675 m 810 878 l 742 878 l 742 944 l 810 944 l 810 878 m 1011 675 l 876 675 l 876 944 l 810 944 l 810 1013 l 876 1013 l 876 1079 l 1011 1079 l 1011 675 z "}}}
